# xmcd
#
# Track frame offsets: 
#        150
#        27272
#        58197
#        81827
#        112295
#        136291
#        160139
#        182411
#        205466
#        231478
#        260155
#        287651
#
# Disc length: 4131 seconds
#
# Revision: 2
# Processed by: cddbd v1.5.2PL0 Copyright (c) Steve Scherf et al.
# Submitted via: ExactAudioCopy v0.99pb3
#
DISCID=b610210c
DTITLE=John Irving - The Fourth Hand [CD04)
DYEAR=2001
DGENRE=Audio Book
TTITLE0=John Irving - The Fourth Hand D04 TR01
TTITLE1=John Irving - The Fourth Hand D04 TR02
TTITLE2=John Irving - The Fourth Hand D04 TR03
TTITLE3=John Irving - The Fourth Hand D04 TR04
TTITLE4=John Irving - The Fourth Hand D04 TR05
TTITLE5=John Irving - The Fourth Hand D04 TR06
TTITLE6=John Irving - The Fourth Hand D04 TR07
TTITLE7=John Irving - The Fourth Hand D04 TR08
TTITLE8=John Irving - The Fourth Hand D04 TR09
TTITLE9=John Irving - The Fourth Hand D04 TR10
TTITLE10=John Irving - The Fourth Hand D04 TR11
TTITLE11=John Irving - The Fourth Hand D04 TR12
EXTD=YEAR: 2001
EXTT0=
EXTT1=
EXTT2=
EXTT3=
EXTT4=
EXTT5=
EXTT6=
EXTT7=
EXTT8=
EXTT9=
EXTT10=
EXTT11=
PLAYORDER=
